<svg width="286" height="38" viewBox="0 0 286 38" fill="none" xmlns="http://www.w3.org/2000/svg">
<mask id="mask0_15884_106692" style="mask-type:alpha" maskUnits="userSpaceOnUse" x="25" y="0" width="67" height="38">
<path fill-rule="evenodd" clip-rule="evenodd" d="M69.3589 36.6917C65.7857 35.9809 62.5034 34.2265 59.9272 31.6503L63.9741 27.6034C65.7499 29.3792 68.0124 30.5885 70.4755 31.0785C72.9386 31.5684 75.4916 31.317 77.8118 30.3559C80.132 29.3949 82.1151 27.7674 83.5103 25.6793C84.9055 23.5912 85.6502 21.1362 85.6502 18.6249C85.6502 16.1135 84.9055 13.6586 83.5103 11.5705C82.1151 9.48234 80.132 7.85486 77.8118 6.89381C75.4916 5.93276 72.9385 5.68131 70.4755 6.17125C68.0124 6.66119 65.7499 7.87052 63.9741 9.64631L59.9272 5.59943C62.5034 3.02324 65.7856 1.26883 69.3589 0.55806C72.9322 -0.152709 76.636 0.212082 80.0019 1.6063C83.3679 3.00053 86.2448 5.36156 88.2689 8.39084C90.293 11.4201 91.3734 14.9816 91.3734 18.6249C91.3734 22.2681 90.293 25.8296 88.2689 28.8589C86.2448 31.8882 83.3679 34.2492 80.002 35.6434C76.636 37.0376 72.9322 37.4024 69.3589 36.6917ZM47.6702 0.558461C51.2435 1.26923 54.5258 3.02364 57.102 5.59982L53.0551 9.64671C51.2793 7.87092 49.0168 6.66159 46.5537 6.17165C44.0906 5.68171 41.5375 5.93316 39.2174 6.89422C36.8972 7.85527 34.9141 9.48275 33.5188 11.5709C32.1236 13.659 31.3789 16.1139 31.3789 18.6253C31.3789 21.1366 32.1236 23.5916 33.5188 25.6797C34.9141 27.7678 36.8972 29.3953 39.2174 30.3563C41.5375 31.3174 44.0906 31.5688 46.5537 31.0789C49.0168 30.5889 51.2793 29.3796 53.0551 27.6038L57.102 31.6507C54.5258 34.2269 51.2435 35.9813 47.6702 36.6921C44.097 37.4028 40.3932 37.038 37.0272 35.6438C33.6612 34.2496 30.7843 31.8886 28.7602 28.8593C26.7361 25.83 25.6558 22.2685 25.6558 18.6253C25.6558 14.982 26.7361 11.4205 28.7602 8.39125C30.7843 5.36197 33.6612 3.00093 37.0272 1.60671C40.3931 0.212486 44.0969 -0.152307 47.6702 0.558461Z" fill="#333333"/>
</mask>
<g mask="url(#mask0_15884_106692)">
<rect x="-4.07324" y="15.668" width="92.6016" height="27.9323" transform="rotate(-34.9453 -4.07324 15.668)" fill="#333333"/>
</g>
<mask id="mask1_15884_106692" style="mask-type:alpha" maskUnits="userSpaceOnUse" x="25" y="0" width="46" height="38">
<path fill-rule="evenodd" clip-rule="evenodd" d="M47.6702 0.558059C51.2435 1.26883 54.5258 3.02323 57.102 5.59942L53.0551 9.6463C51.2793 7.87051 49.0168 6.66119 46.5537 6.17125C44.0906 5.68131 41.5375 5.93276 39.2174 6.89381C36.8972 7.85486 34.9141 9.48235 33.5188 11.5705C32.1236 13.6586 31.3789 16.1135 31.3789 18.6249C31.3789 21.1362 32.1236 23.5912 33.5188 25.6793C34.9141 27.7674 36.8972 29.3949 39.2174 30.3559C41.5375 31.317 44.0906 31.5684 46.5537 31.0785C49.0168 30.5885 51.2793 29.3792 53.0551 27.6034L57.102 31.6503C54.5258 34.2265 51.2435 35.9809 47.6702 36.6917C44.097 37.4024 40.3932 37.0376 37.0272 35.6434C33.6612 34.2492 30.7843 31.8882 28.7602 28.8589C26.7361 25.8296 25.6558 22.2681 25.6558 18.6249C25.6558 14.9816 26.7361 11.4201 28.7602 8.39084C30.7843 5.36157 33.6612 3.00053 37.0272 1.60631C40.3931 0.212084 44.0969 -0.152709 47.6702 0.558059ZM59.0145 7.17392C57.6397 7.17392 56.5252 8.28841 56.5252 9.66321V27.5861C56.5252 28.9609 57.6397 30.0754 59.0145 30.0754C60.3893 30.0754 61.5038 28.9609 61.5038 27.5861V27.0221H68.5559C69.6099 27.0221 70.4643 26.1676 70.4643 25.1136C70.4643 24.0596 69.6099 23.2052 68.5559 23.2052H61.5038V14.0449H68.5559C69.6099 14.0449 70.4643 13.1904 70.4643 12.1364C70.4643 11.0824 69.6099 10.228 68.5559 10.228H61.5038V9.66321C61.5038 8.28841 60.3893 7.17392 59.0145 7.17392Z" fill="#222831"/>
</mask>
<g mask="url(#mask1_15884_106692)">
<path fill-rule="evenodd" clip-rule="evenodd" d="M56.5249 9.66312C56.5249 8.28832 57.6394 7.17383 59.0142 7.17383C60.389 7.17383 61.5035 8.28832 61.5035 9.66312V10.2279L68.5558 10.2279C69.6098 10.2279 70.4643 11.0823 70.4643 12.1363C70.4643 13.1903 69.6098 14.0448 68.5558 14.0448L61.5035 14.0448V23.2051H68.5558C69.6098 23.2051 70.4643 24.0595 70.4643 25.1135C70.4643 26.1675 69.6098 27.022 68.5558 27.022H61.5035V27.586C61.5035 28.9608 60.389 30.0753 59.0142 30.0753C57.6394 30.0753 56.5249 28.9608 56.5249 27.586V9.66312Z" fill="#333333"/>
<rect width="19.2224" height="35.4097" transform="matrix(4.37114e-08 1 1 -4.37114e-08 21.8164 18.1191)" fill="#333333"/>
<rect x="55.8774" y="30.2598" width="23.6065" height="16.5245" transform="rotate(-90 55.8774 30.2598)" fill="#A3A3A3"/>
</g>
<line x1="44.4078" y1="6.88047" x2="44.4078" y2="8.09571" stroke="#333333" stroke-width="1.62032" stroke-linecap="round"/>
<line x1="54.9281" y1="18.483" x2="53.7129" y2="18.483" stroke="#333333" stroke-width="1.62032" stroke-linecap="round"/>
<line x1="33.4804" y1="18.483" x2="32.2651" y2="18.483" stroke="#333333" stroke-width="1.62032" stroke-linecap="round"/>
<line x1="44.3399" y1="29.1383" x2="44.3399" y2="30.3535" stroke="#333333" stroke-width="1.62032" stroke-linecap="round"/>
<path fill-rule="evenodd" clip-rule="evenodd" d="M44.1956 18.2792L44.1989 9.98438L38.8081 19.3832L44.0695 19.3832L44.1025 27.6785L49.4521 18.2587L44.1956 18.2792Z" fill="#FFD369"/>
<circle cx="51.8297" cy="11.191" r="0.81016" fill="#333333"/>
<circle cx="53.4503" cy="14.4322" r="0.81016" fill="#333333"/>
<circle cx="48.589" cy="8.76036" r="0.81016" fill="#333333"/>
<path d="M95.6938 30.4685C93.9828 30.4685 92.3861 30.1711 90.9037 29.5764C89.4214 28.9725 88.1175 28.1352 86.9921 27.0647C85.8757 25.9941 85.0019 24.7497 84.3705 23.3314C83.7392 21.904 83.4235 20.3668 83.4235 18.7197C83.4235 17.0819 83.7392 15.5492 84.3705 14.1218C85.011 12.6944 85.8895 11.4454 87.0058 10.3748C88.1221 9.30424 89.4168 8.47158 90.89 7.87682C92.3723 7.27291 93.9645 6.97096 95.6664 6.97096C97.0664 6.97096 98.3931 7.17226 99.6467 7.57487C100.9 7.97747 101.985 8.51275 102.9 9.18071L101.321 12.2277C100.635 11.6787 99.8205 11.2532 98.8781 10.9513C97.9356 10.6493 96.9428 10.4983 95.8997 10.4983C94.6644 10.4983 93.5253 10.7088 92.4821 11.1297C91.439 11.5506 90.5286 12.1362 89.7508 12.8865C88.9822 13.6277 88.3874 14.4969 87.9665 15.4943C87.5456 16.4917 87.3352 17.5668 87.3352 18.7197C87.3352 19.8726 87.5456 20.9478 87.9665 21.9452C88.3874 22.9425 88.9822 23.8164 89.7508 24.5667C90.5286 25.3078 91.439 25.8889 92.4821 26.3098C93.5253 26.7307 94.6644 26.9411 95.8997 26.9411C96.9428 26.9411 97.9356 26.7901 98.8781 26.4882C99.8205 26.1862 100.635 25.7608 101.321 25.2118L102.9 28.2587C102.012 28.9084 100.941 29.4391 99.6879 29.8509C98.4434 30.2626 97.1121 30.4685 95.6938 30.4685ZM104.404 30.0293L113.421 7.38271H116.756L125.788 30.0293H121.917L119.694 24.1275H110.498L108.261 30.0293H104.404ZM111.719 20.9707H118.472L115.082 12.214L111.719 20.9707ZM129.811 30.0293V7.38271H136.865C138.339 7.38271 139.633 7.63892 140.75 8.15132C141.875 8.66373 142.753 9.41404 143.385 10.4023C144.016 11.3905 144.332 12.612 144.332 14.0669C144.332 15.5035 144.016 16.7433 143.385 17.7864C142.753 18.8204 141.875 19.621 140.75 20.1883C139.633 20.7465 138.339 21.0256 136.865 21.0256H133.407V30.0293H129.811ZM133.407 18.1158H135.809C136.714 18.1158 137.524 17.9694 138.238 17.6766C138.961 17.3838 139.533 16.9492 139.954 16.3727C140.374 15.7871 140.585 15.0505 140.585 14.163C140.585 13.2754 140.374 12.5434 139.954 11.9669C139.533 11.3905 138.961 10.965 138.238 10.6905C137.524 10.4068 136.714 10.265 135.809 10.265H133.407V18.1158ZM144.641 30.0293L153.659 7.38271H156.994L166.025 30.0293H162.154L159.931 24.1275H150.735L148.498 30.0293H144.641ZM151.957 20.9707H158.709L155.319 12.214L151.957 20.9707ZM180.136 30.4685C178.425 30.4685 176.828 30.1711 175.346 29.5764C173.864 28.9725 172.56 28.1352 171.434 27.0647C170.318 25.9941 169.444 24.7497 168.813 23.3314C168.181 21.904 167.866 20.3668 167.866 18.7197C167.866 17.0819 168.181 15.5492 168.813 14.1218C169.453 12.6944 170.332 11.4454 171.448 10.3748C172.564 9.30424 173.859 8.47158 175.332 7.87682C176.814 7.27291 178.407 6.97096 180.109 6.97096C181.509 6.97096 182.835 7.17226 184.089 7.57487C185.342 7.97747 186.427 8.51275 187.342 9.18071L185.763 12.2277C185.077 11.6787 184.263 11.2532 183.32 10.9513C182.378 10.6493 181.385 10.4983 180.342 10.4983C179.107 10.4983 177.967 10.7088 176.924 11.1297C175.881 11.5506 174.971 12.1362 174.193 12.8865C173.424 13.6277 172.83 14.4969 172.409 15.4943C171.988 16.4917 171.777 17.5668 171.777 18.7197C171.777 19.8726 171.988 20.9478 172.409 21.9452C172.83 22.9425 173.424 23.8164 174.193 24.5667C174.971 25.3078 175.881 25.8889 176.924 26.3098C177.967 26.7307 179.107 26.9411 180.342 26.9411C181.385 26.9411 182.378 26.7901 183.32 26.4882C184.263 26.1862 185.077 25.7608 185.763 25.2118L187.342 28.2587C186.454 28.9084 185.384 29.4391 184.13 29.8509C182.886 30.2626 181.554 30.4685 180.136 30.4685ZM191.44 30.0293V7.38271H195.036V30.0293H191.44ZM204.087 30.0293V10.5807H197.924V7.38271H213.846V10.5807H207.669V30.0293H204.087ZM227.003 30.4685C225.42 30.4685 223.937 30.1665 222.556 29.5626C221.174 28.9587 219.962 28.1215 218.918 27.0509C217.875 25.9712 217.056 24.7222 216.462 23.3039C215.876 21.8765 215.583 20.3485 215.583 18.7197C215.583 17.0819 215.876 15.5538 216.462 14.1355C217.056 12.7172 217.875 11.4728 218.918 10.4023C219.962 9.32254 221.174 8.48073 222.556 7.87682C223.937 7.27291 225.42 6.97096 227.003 6.97096C228.586 6.97096 230.068 7.27291 231.45 7.87682C232.831 8.48073 234.044 9.32254 235.087 10.4023C236.13 11.4728 236.944 12.7172 237.53 14.1355C238.125 15.5538 238.422 17.0819 238.422 18.7197C238.422 20.3485 238.125 21.8765 237.53 23.3039C236.944 24.7222 236.13 25.9712 235.087 27.0509C234.044 28.1215 232.831 28.9587 231.45 29.5626C230.068 30.1665 228.586 30.4685 227.003 30.4685ZM227.003 27.0098C228.082 27.0098 229.08 26.8039 229.995 26.3921C230.919 25.9712 231.72 25.3902 232.397 24.649C233.083 23.8987 233.614 23.0203 233.989 22.0138C234.364 21.0073 234.551 19.9092 234.551 18.7197C234.551 17.5302 234.364 16.4322 233.989 15.4257C233.614 14.4192 233.083 13.5453 232.397 12.8042C231.72 12.0539 230.919 11.4728 229.995 11.0611C229.08 10.6402 228.082 10.4297 227.003 10.4297C225.932 10.4297 224.935 10.6402 224.011 11.0611C223.096 11.4728 222.295 12.0539 221.609 12.8042C220.932 13.5453 220.405 14.4192 220.03 15.4257C219.655 16.4322 219.467 17.5302 219.467 18.7197C219.467 19.9092 219.655 21.0073 220.03 22.0138C220.405 23.0203 220.932 23.8987 221.609 24.649C222.295 25.3902 223.096 25.9712 224.011 26.3921C224.935 26.8039 225.932 27.0098 227.003 27.0098ZM243.499 30.0293V7.38271H250.554C252.073 7.38271 253.391 7.64807 254.507 8.17877C255.632 8.70948 256.497 9.47352 257.101 10.4709C257.714 11.4682 258.021 12.6669 258.021 14.0669C258.021 15.229 257.801 16.2721 257.362 17.1962C256.932 18.1112 256.309 18.8707 255.495 19.4746C254.69 20.0785 253.72 20.4994 252.585 20.7373L260.038 30.0293H255.481L248.701 21.1354H247.095V30.0293H243.499ZM247.095 18.1158H249.497C250.495 18.1158 251.35 17.9603 252.064 17.6492C252.777 17.3289 253.322 16.876 253.697 16.2904C254.081 15.6956 254.274 14.9865 254.274 14.163C254.274 12.9277 253.853 11.9715 253.011 11.2944C252.178 10.6081 251.007 10.265 249.497 10.265H247.095V18.1158Z" fill="#333333"/>
</svg>
