<svg width="185" height="24" viewBox="0 0 185 24" fill="none" xmlns="http://www.w3.org/2000/svg">
<mask id="mask0_15884_106784" style="mask-type:alpha" maskUnits="userSpaceOnUse" x="16" y="0" width="43" height="24">
<path fill-rule="evenodd" clip-rule="evenodd" d="M44.2867 23.6587C41.9809 23.2 39.8629 22.0679 38.2004 20.4055L40.8119 17.794C41.9578 18.9399 43.4178 19.7203 45.0072 20.0365C46.5967 20.3526 48.2441 20.1904 49.7414 19.5702C51.2386 18.95 52.5183 17.8998 53.4186 16.5524C54.3189 15.2049 54.7995 13.6207 54.7995 12.0002C54.7995 10.3796 54.3189 8.79543 53.4186 7.44797C52.5183 6.10052 51.2386 5.05031 49.7414 4.43014C48.2441 3.80998 46.5967 3.64772 45.0072 3.96387C43.4178 4.28003 41.9578 5.06041 40.8119 6.20633L38.2004 3.59488C39.8629 1.93247 41.9809 0.800349 44.2867 0.34169C46.5926 -0.116968 48.9826 0.118431 51.1547 1.01812C53.3267 1.91781 55.1832 3.44138 56.4893 5.39617C57.7955 7.35096 58.4926 9.64917 58.4926 12.0002C58.4926 14.3512 57.7955 16.6494 56.4893 18.6042C55.1832 20.559 53.3267 22.0825 51.1547 22.9822C48.9826 23.8819 46.5926 24.1173 44.2867 23.6587ZM30.2909 0.342028C32.5967 0.800686 34.7147 1.9328 36.3772 3.59521L33.7657 6.20666C32.6198 5.06075 31.1598 4.28037 29.5704 3.96421C27.9809 3.64805 26.3335 3.81032 24.8362 4.43048C23.339 5.05065 22.0593 6.10086 21.159 7.44832C20.2587 8.79577 19.7781 10.3799 19.7781 12.0005C19.7781 13.6211 20.2587 15.2053 21.159 16.5527C22.0593 17.9002 23.339 18.9504 24.8362 19.5705C26.3335 20.1907 27.9809 20.353 29.5704 20.0368C31.1598 19.7207 32.6198 18.9403 33.7657 17.7944L36.3772 20.4058C34.7147 22.0682 32.5967 23.2003 30.2909 23.659C27.985 24.1177 25.595 23.8823 23.4229 22.9826C21.2509 22.0829 19.3944 20.5593 18.0883 18.6045C16.7821 16.6497 16.085 14.3515 16.085 12.0005C16.085 9.64951 16.7821 7.3513 18.0883 5.39651C19.3944 3.44173 21.2509 1.91815 23.4229 1.01846C25.595 0.11877 27.985 -0.11663 30.2909 0.342028Z" fill="#333333"/>
</mask>
<g mask="url(#mask0_15884_106784)">
<rect x="-3.09863" y="10.0918" width="59.7557" height="18.0247" transform="rotate(-34.9453 -3.09863 10.0918)" fill="#F0F5FC"/>
</g>
<mask id="mask1_15884_106784" style="mask-type:alpha" maskUnits="userSpaceOnUse" x="16" y="0" width="29" height="24">
<path fill-rule="evenodd" clip-rule="evenodd" d="M30.2909 0.34169C32.5967 0.800347 34.7147 1.93246 36.3772 3.59488L33.7657 6.20632C32.6198 5.06041 31.1598 4.28003 29.5704 3.96387C27.9809 3.64772 26.3335 3.80998 24.8362 4.43014C23.339 5.05031 22.0593 6.10052 21.159 7.44798C20.2587 8.79543 19.7781 10.3796 19.7781 12.0002C19.7781 13.6207 20.2587 15.2049 21.159 16.5524C22.0593 17.8998 23.339 18.95 24.8362 19.5702C26.3335 20.1904 27.9809 20.3526 29.5704 20.0365C31.1598 19.7203 32.6198 18.9399 33.7657 17.794L36.3772 20.4055C34.7147 22.0679 32.5967 23.2 30.2909 23.6587C27.985 24.1173 25.595 23.8819 23.4229 22.9822C21.2509 22.0825 19.3944 20.559 18.0883 18.6042C16.7821 16.6494 16.085 14.3512 16.085 12.0002C16.085 9.64917 16.7821 7.35097 18.0883 5.39618C19.3944 3.44139 21.2509 1.91781 23.4229 1.01812C25.595 0.118432 27.985 -0.116968 30.2909 0.34169ZM37.6115 4.61115C36.7243 4.61115 36.0052 5.33033 36.0052 6.21748V17.7831C36.0052 18.6703 36.7243 19.3894 37.6115 19.3894C38.4986 19.3894 39.2178 18.6703 39.2178 17.7831V17.4189L43.7684 17.4189C44.4486 17.4189 44.9999 16.8675 44.9999 16.1874C44.9999 15.5072 44.4486 14.9558 43.7684 14.9558H39.2178V9.04472L43.7684 9.04472C44.4486 9.04472 44.9999 8.49335 44.9999 7.8132C44.9999 7.13304 44.4486 6.58167 43.7684 6.58167H39.2178V6.21748C39.2178 5.33033 38.4986 4.61115 37.6115 4.61115Z" fill="#222831"/>
</mask>
<g mask="url(#mask1_15884_106784)">
<path fill-rule="evenodd" clip-rule="evenodd" d="M36.0054 6.21669C36.0054 5.32953 36.7246 4.61035 37.6117 4.61035C38.4989 4.61035 39.218 5.32953 39.218 6.21669V6.58105L43.7688 6.58105C44.449 6.58105 45.0004 7.13242 45.0004 7.81257C45.0004 8.49272 44.449 9.0441 43.7688 9.0441H39.218V14.9552H43.7688C44.449 14.9552 45.0004 15.5066 45.0004 16.1867C45.0004 16.8669 44.449 17.4183 43.7688 17.4183L39.218 17.4183V17.7823C39.218 18.6695 38.4989 19.3886 37.6117 19.3886C36.7246 19.3886 36.0054 18.6695 36.0054 17.7823V6.21669Z" fill="#F0F5FC"/>
<rect width="12.4042" height="22.8499" transform="matrix(4.37114e-08 1 1 -4.37114e-08 13.6074 11.6738)" fill="#F0F5FC"/>
<rect x="35.5869" y="19.5078" width="15.2332" height="10.6633" transform="rotate(-90 35.5869 19.5078)" fill="#F0F5FC"/>
</g>
<line x1="28.1859" y1="4.42221" x2="28.1859" y2="5.2064" stroke="#F0F5FC" stroke-width="1.04559" stroke-linecap="round"/>
<line x1="34.9743" y1="11.9085" x2="34.1901" y2="11.9085" stroke="#F0F5FC" stroke-width="1.04559" stroke-linecap="round"/>
<line x1="21.1344" y1="11.9085" x2="20.3502" y2="11.9085" stroke="#F0F5FC" stroke-width="1.04559" stroke-linecap="round"/>
<line x1="28.1419" y1="18.7845" x2="28.1419" y2="19.5687" stroke="#F0F5FC" stroke-width="1.04559" stroke-linecap="round"/>
<path fill-rule="evenodd" clip-rule="evenodd" d="M28.0488 11.7765L28.051 6.42383L24.5723 12.4889L27.9674 12.4889L27.9887 17.8418L31.4408 11.7632L28.0488 11.7765Z" fill="#F0F5FC"/>
<circle cx="32.9754" cy="7.20346" r="0.522795" fill="#F0F5FC"/>
<circle cx="34.0208" cy="9.29428" r="0.522795" fill="#F0F5FC"/>
<circle cx="30.8841" cy="5.6351" r="0.522795" fill="#F0F5FC"/>
<path d="M61.2808 19.2834C60.1766 19.2834 59.1463 19.0915 58.1897 18.7077C57.2332 18.318 56.3918 17.7778 55.6655 17.0869C54.9452 16.3961 54.3813 15.5931 53.9739 14.6779C53.5664 13.7567 53.3627 12.7648 53.3627 11.7019C53.3627 10.645 53.5664 9.65602 53.9739 8.7349C54.3872 7.81379 54.954 7.00781 55.6744 6.31698C56.3947 5.62615 57.2302 5.08883 58.1809 4.70503C59.1374 4.31533 60.1648 4.12048 61.2631 4.12048C62.1665 4.12048 63.0226 4.25038 63.8315 4.51018C64.6405 4.76998 65.3402 5.1154 65.9306 5.54643L64.9121 7.51266C64.4692 7.15838 63.9437 6.88382 63.3356 6.68897C62.7274 6.49412 62.0867 6.39669 61.4136 6.39669C60.6165 6.39669 59.8814 6.5325 59.2083 6.80411C58.5351 7.07572 57.9476 7.45361 57.4458 7.93778C56.9498 8.41605 56.566 8.97699 56.2944 9.62059C56.0228 10.2642 55.8869 10.958 55.8869 11.7019C55.8869 12.4459 56.0228 13.1397 56.2944 13.7833C56.566 14.4269 56.9498 14.9908 57.4458 15.475C57.9476 15.9532 58.5351 16.3282 59.2083 16.5998C59.8814 16.8714 60.6165 17.0072 61.4136 17.0072C62.0867 17.0072 62.7274 16.9098 63.3356 16.7149C63.9437 16.5201 64.4692 16.2455 64.9121 15.8912L65.9306 17.8575C65.3579 18.2767 64.667 18.6192 63.8581 18.8849C63.0551 19.1506 62.196 19.2834 61.2808 19.2834ZM66.9013 19L72.7202 4.38618H74.8724L80.7003 19H78.2026L76.7678 15.1916H70.8337L69.3901 19H66.9013ZM71.622 13.1545H75.9796L73.7919 7.5038L71.622 13.1545ZM83.2963 19V4.38618H87.8487C88.7993 4.38618 89.6348 4.55151 90.3552 4.88217C91.0815 5.21282 91.6483 5.697 92.0557 6.33469C92.4631 6.97239 92.6668 7.76065 92.6668 8.69947C92.6668 9.62649 92.4631 10.4266 92.0557 11.0997C91.6483 11.7669 91.0815 12.2835 90.3552 12.6496C89.6348 13.0098 88.7993 13.1899 87.8487 13.1899H85.6168V19H83.2963ZM85.6168 11.3122H87.1667C87.7513 11.3122 88.2738 11.2178 88.7344 11.0288C89.2009 10.8399 89.5699 10.5594 89.8415 10.1874C90.1131 9.80953 90.2489 9.33422 90.2489 8.76147C90.2489 8.18873 90.1131 7.71636 89.8415 7.34437C89.5699 6.97239 89.2009 6.69782 88.7344 6.52069C88.2738 6.33765 87.7513 6.24612 87.1667 6.24612H85.6168V11.3122ZM92.8664 19L98.6854 4.38618H100.838L106.665 19H104.168L102.733 15.1916H96.7988L95.3552 19H92.8664ZM97.5871 13.1545H101.945L99.757 7.5038L97.5871 13.1545ZM115.771 19.2834C114.667 19.2834 113.637 19.0915 112.68 18.7077C111.724 18.318 110.882 17.7778 110.156 17.0869C109.436 16.3961 108.872 15.5931 108.464 14.6779C108.057 13.7567 107.853 12.7648 107.853 11.7019C107.853 10.645 108.057 9.65602 108.464 8.7349C108.878 7.81379 109.444 7.00781 110.165 6.31698C110.885 5.62615 111.721 5.08883 112.671 4.70503C113.628 4.31533 114.655 4.12048 115.753 4.12048C116.657 4.12048 117.513 4.25038 118.322 4.51018C119.131 4.76998 119.831 5.1154 120.421 5.54643L119.403 7.51266C118.96 7.15838 118.434 6.88382 117.826 6.68897C117.218 6.49412 116.577 6.39669 115.904 6.39669C115.107 6.39669 114.372 6.5325 113.699 6.80411C113.026 7.07572 112.438 7.45361 111.936 7.93778C111.44 8.41605 111.056 8.97699 110.785 9.62059C110.513 10.2642 110.377 10.958 110.377 11.7019C110.377 12.4459 110.513 13.1397 110.785 13.7833C111.056 14.4269 111.44 14.9908 111.936 15.475C112.438 15.9532 113.026 16.3282 113.699 16.5998C114.372 16.8714 115.107 17.0072 115.904 17.0072C116.577 17.0072 117.218 16.9098 117.826 16.7149C118.434 16.5201 118.96 16.2455 119.403 15.8912L120.421 17.8575C119.848 18.2767 119.157 18.6192 118.349 18.8849C117.546 19.1506 116.686 19.2834 115.771 19.2834ZM123.066 19V4.38618H125.386V19H123.066ZM131.227 19V6.44983H127.25V4.38618H137.524V6.44983H133.538V19H131.227ZM146.014 19.2834C144.993 19.2834 144.036 19.0886 143.145 18.6989C142.253 18.3092 141.471 17.7689 140.797 17.0781C140.124 16.3813 139.596 15.5753 139.212 14.6601C138.834 13.739 138.645 12.753 138.645 11.7019C138.645 10.645 138.834 9.65897 139.212 8.74376C139.596 7.82855 140.124 7.02553 140.797 6.33469C141.471 5.63795 142.253 5.09473 143.145 4.70503C144.036 4.31533 144.993 4.12048 146.014 4.12048C147.036 4.12048 147.992 4.31533 148.884 4.70503C149.775 5.09473 150.558 5.63795 151.231 6.33469C151.904 7.02553 152.43 7.82855 152.807 8.74376C153.191 9.65897 153.383 10.645 153.383 11.7019C153.383 12.753 153.191 13.739 152.807 14.6601C152.43 15.5753 151.904 16.3813 151.231 17.0781C150.558 17.7689 149.775 18.3092 148.884 18.6989C147.992 19.0886 147.036 19.2834 146.014 19.2834ZM146.014 17.0515C146.711 17.0515 147.355 16.9186 147.945 16.6529C148.541 16.3813 149.058 16.0064 149.495 15.5281C149.938 15.0439 150.28 14.4771 150.522 13.8276C150.764 13.1781 150.885 12.4695 150.885 11.7019C150.885 10.9344 150.764 10.2258 150.522 9.5763C150.28 8.9268 149.938 8.36291 149.495 7.88464C149.058 7.40047 148.541 7.02553 147.945 6.75982C147.355 6.48821 146.711 6.35241 146.014 6.35241C145.323 6.35241 144.68 6.48821 144.083 6.75982C143.493 7.02553 142.976 7.40047 142.533 7.88464C142.097 8.36291 141.757 8.9268 141.515 9.5763C141.273 10.2258 141.152 10.9344 141.152 11.7019C141.152 12.4695 141.273 13.1781 141.515 13.8276C141.757 14.4771 142.097 15.0439 142.533 15.5281C142.976 16.0064 143.493 16.3813 144.083 16.6529C144.68 16.9186 145.323 17.0515 146.014 17.0515ZM156.659 19V4.38618H161.212C162.192 4.38618 163.042 4.55742 163.763 4.89988C164.489 5.24235 165.047 5.73538 165.437 6.37898C165.832 7.02258 166.03 7.79607 166.03 8.69947C166.03 9.44936 165.888 10.1225 165.605 10.7188C165.327 11.3093 164.926 11.7994 164.4 12.1891C163.881 12.5788 163.255 12.8504 162.523 13.0039L167.332 19H164.391L160.016 13.2608H158.98V19H156.659ZM158.98 11.3122H160.53C161.173 11.3122 161.726 11.2119 162.186 11.0111C162.647 10.8045 162.998 10.5122 163.24 10.1343C163.488 9.75049 163.612 9.29288 163.612 8.76147C163.612 7.96436 163.34 7.34733 162.797 6.91039C162.26 6.46755 161.504 6.24612 160.53 6.24612H158.98V11.3122Z" fill="#F0F5FC"/>
</svg>
